<svg width="40" height="33" viewBox="0 0 40 33" fill="none" xmlns="http://www.w3.org/2000/svg">
<g clip-path="url(#clip0_1028_313)">
<path d="M38.9485 5.34175H7.19243V1.00946C7.19243 0.462671 6.72976 0 6.18297 0H3.65931C1.64038 0 0 1.64038 0 3.65931V28.6015C0 30.6204 1.64038 32.2608 3.65931 32.2608H38.9905C39.5373 32.2608 40 31.7981 40 31.2513V6.35196C39.9579 5.80517 39.4953 5.3425 38.9485 5.3425V5.34175ZM1.97687 3.65931C1.97687 2.73396 2.73396 1.97687 3.65931 1.97687H5.21556V24.985H3.65931C3.07045 24.985 2.4816 25.1112 1.97687 25.4056V3.65931ZM31.6299 30.2839H3.65931C2.73396 30.2839 1.97687 29.5268 1.97687 28.6015C1.97687 27.6761 2.73396 26.919 3.65931 26.919H6.18297C6.72976 26.919 7.19243 26.4564 7.19243 25.9096V7.31936H31.6299V30.2839ZM37.9811 30.2839H33.6067V27.2555H34.9947C35.5415 27.2555 36.0042 26.7928 36.0042 26.2461C36.0042 25.6993 35.5415 25.2366 34.9947 25.2366H33.6067V22.2082H34.9947C35.5415 22.2082 36.0042 21.7455 36.0042 21.1987C36.0042 20.6519 35.5415 20.1893 34.9947 20.1893H33.6067V17.1609H34.9947C35.5415 17.1609 36.0042 16.6982 36.0042 16.1514C36.0042 15.6046 35.5415 15.142 34.9947 15.142H33.6067V12.1136H34.9947C35.5415 12.1136 36.0042 11.6509 36.0042 11.1041C36.0042 10.5573 35.5415 10.0946 34.9947 10.0946H33.6067V7.31936H37.9811V30.2839Z" fill="url(#paint0_linear_1028_313)"/>
<path d="M12.2397 16.3618C12.7865 16.3618 13.2492 15.8992 13.2492 15.3524V12.6605H15.9411C16.4879 12.6605 16.9505 12.1978 16.9505 11.651C16.9505 11.1042 16.4879 10.6836 15.9403 10.6836H12.239C11.6922 10.6836 11.2295 11.1463 11.2295 11.6931V15.3944C11.2716 15.8992 11.6922 16.3618 12.239 16.3618H12.2397Z" fill="url(#paint1_linear_1028_313)"/>
<path d="M12.2397 26.9611H26.5404C27.0872 26.9611 27.5499 26.4984 27.5499 25.9516V19.0536C27.5499 18.5068 27.0872 18.0441 26.5404 18.0441H20.3995V15.3522C20.3995 14.8054 19.9368 14.3428 19.3901 14.3428C18.8433 14.3428 18.3806 14.8054 18.3806 15.3522V18.0441H15.899C15.3522 18.0441 14.8895 18.5068 14.8895 19.0536C14.8895 19.6004 15.3522 20.0631 15.899 20.0631H25.531V24.9842H13.2492V22.2923C13.2492 21.7455 12.7865 21.2828 12.2397 21.2828C11.6929 21.2828 11.2302 21.7455 11.2302 22.2923V25.9937C11.2723 26.4984 11.6929 26.9611 12.2404 26.9611H12.2397Z" fill="url(#paint2_linear_1028_313)"/>
<path d="M22.8392 12.6605H25.5311V15.3524C25.5311 15.8992 25.9937 16.3619 26.5405 16.3619C27.0873 16.3619 27.55 15.8992 27.55 15.3524V11.6511C27.55 11.1043 27.0873 10.6416 26.5405 10.6416H22.8392C22.2924 10.6416 21.8297 11.1043 21.8297 11.6511C21.8297 12.1979 22.2924 12.6605 22.8392 12.6605V12.6605Z" fill="url(#paint3_linear_1028_313)"/>
</g>
<defs>
<linearGradient id="paint0_linear_1028_313" x1="20" y1="0" x2="20" y2="32.2608" gradientUnits="userSpaceOnUse">
<stop stop-color="#C2185B"/>
<stop offset="1" stop-color="#E53935"/>
</linearGradient>
<linearGradient id="paint1_linear_1028_313" x1="14.09" y1="10.6836" x2="14.09" y2="16.3618" gradientUnits="userSpaceOnUse">
<stop stop-color="#C2185B"/>
<stop offset="1" stop-color="#E53935"/>
</linearGradient>
<linearGradient id="paint2_linear_1028_313" x1="19.3901" y1="14.3428" x2="19.3901" y2="26.9611" gradientUnits="userSpaceOnUse">
<stop stop-color="#C2185B"/>
<stop offset="1" stop-color="#E53935"/>
</linearGradient>
<linearGradient id="paint3_linear_1028_313" x1="24.6899" y1="10.6416" x2="24.6899" y2="16.3619" gradientUnits="userSpaceOnUse">
<stop stop-color="#C2185B"/>
<stop offset="1" stop-color="#E53935"/>
</linearGradient>
<clipPath id="clip0_1028_313">
<rect width="40" height="32.2608" fill="white"/>
</clipPath>
</defs>
</svg>
