<svg width="40" height="40" viewBox="0 0 40 40" fill="none" xmlns="http://www.w3.org/2000/svg">
<g clip-path="url(#clip0_1028_330)">
<path d="M40 20.0004C40 18.9825 39.9218 17.9723 39.7695 16.9783C39.7695 16.872 39.7534 16.7657 39.7185 16.6645C39.0306 12.5972 37.0969 8.81311 34.1419 5.85727C30.3918 2.10719 25.305 0 20.0004 0C15.8337 0 11.8021 1.3002 8.44661 3.67525C8.28334 3.69651 8.12602 3.75943 7.99252 3.85978C7.86241 3.95842 7.76122 4.08682 7.69489 4.23308C7.05372 4.73394 6.43976 5.27562 5.85812 5.85727C2.10719 9.60905 0 14.6959 0 20.0004C0 23.4512 0.892876 26.8101 2.54852 29.7685C2.59019 29.9598 2.69138 30.1341 2.83594 30.2668C3.6727 31.6665 4.68547 32.9701 5.85812 34.1427C7.7204 36.005 9.91262 37.4617 12.2979 38.4574C12.4441 38.5765 12.6261 38.6522 12.8217 38.6675C15.0913 39.54 17.5225 40.0008 20.0004 40.0008C25.305 40.0008 30.3918 37.8937 34.1427 34.1427C35.2907 32.9947 36.2831 31.7218 37.1096 30.3561C37.1811 30.3051 37.2474 30.2447 37.3035 30.1741C37.4192 30.0278 37.488 29.8527 37.505 29.6715C39.1267 26.7361 40 23.4138 40 20.0004V20.0004ZM36.6309 27.1264C33.7932 21.4749 26.4734 17.6823 20.2887 18.9825C18.0344 16.406 17.0939 12.5504 17.4681 8.91856C21.2045 8.75869 24.9351 9.39986 28.4079 10.8038C32.0253 12.2656 35.2695 14.5173 37.9056 17.3907C38.0306 18.2495 38.0952 19.1212 38.0952 20.0004C38.0952 22.475 37.5867 24.8959 36.6309 27.1273V27.1264ZM11.8778 27.6179C9.88966 24.4036 8.61923 20.7938 8.15664 17.0369C7.67193 13.0998 8.08946 9.10563 9.37265 5.35556C11.877 3.53834 14.8107 2.39036 17.8924 2.02895C14.3745 7.28672 14.7061 15.5241 18.8882 20.2657C17.8337 23.407 15.0947 26.0941 11.8778 27.6179V27.6179ZM37.0297 13.8821C34.6827 11.8463 32.0092 10.206 29.1129 9.03676C25.5167 7.58434 21.6646 6.89215 17.7971 6.99675C18.2631 5.06728 19.1271 3.28833 20.3907 1.9099C25.0481 2.01025 29.4947 3.90399 32.7958 7.20508C34.7006 9.10904 36.1368 11.3948 37.0305 13.8829L37.0297 13.8821ZM6.68722 7.74591C5.99077 10.8744 5.83176 14.1074 6.22632 17.3048C6.70933 21.2156 8.00867 24.9759 10.0342 28.345C8.0818 28.9649 6.0452 29.146 4.16165 28.7489C2.69478 26.0941 1.9048 23.0881 1.9048 20.0004C1.9048 15.4519 3.61912 11.0802 6.68722 7.74676V7.74591ZM5.51627 30.8459C5.76883 30.8612 6.02224 30.868 6.27649 30.8671C8.11497 30.8671 9.98576 30.476 11.7554 29.7727C11.854 29.7498 11.9475 29.7115 12.0326 29.6596C16.0037 27.9972 19.4162 24.7599 20.7079 20.8431C24.1451 20.1169 28.0644 21.2683 31.0602 23.4886C29.2651 26.7999 26.7752 29.6886 23.7582 31.9539C20.5974 34.3273 16.9417 35.9531 13.0658 36.7142C10.8948 35.8137 8.89985 34.4897 7.20593 32.7966C6.59368 32.1844 6.03074 31.5321 5.51712 30.8476L5.51627 30.8459ZM32.7958 32.7949C29.4028 36.1887 24.799 38.0952 20.0004 38.0952C18.855 38.0952 17.7215 37.9855 16.6117 37.7738C19.5906 36.8154 22.3959 35.3647 24.9095 33.4735C28.0346 31.1223 30.6308 28.1477 32.5373 24.7437C33.8978 26.0728 34.9446 27.6511 35.4829 29.3646C34.7346 30.6018 33.8358 31.7549 32.7958 32.7949V32.7949Z" fill="url(#paint0_linear_1028_330)"/>
</g>
<defs>
<linearGradient id="paint0_linear_1028_330" x1="20" y1="0" x2="20" y2="40.0008" gradientUnits="userSpaceOnUse">
<stop stop-color="#C2185B"/>
<stop offset="1" stop-color="#E53935"/>
</linearGradient>
<clipPath id="clip0_1028_330">
<rect width="40" height="40" fill="white"/>
</clipPath>
</defs>
</svg>
