<svg width="40" height="33" viewBox="0 0 40 33" fill="none" xmlns="http://www.w3.org/2000/svg">
<g clip-path="url(#clip0_1028_327)">
<path d="M35.3263 0H30.6526C29.9368 0 29.3474 0.589474 29.3474 1.30526V6.82105H22.8211C22.9053 7.2421 22.9474 7.66316 22.9474 8.12632C22.9474 8.54737 22.9053 9.01053 22.8211 9.43158H29.3474V24.1684C29.3474 24.8842 29.9368 25.4737 30.6526 25.4737H35.3263C36.5053 25.4737 37.4316 26.4421 37.4316 27.5789C37.4316 28.7158 36.5053 29.6842 35.3263 29.6842H2.56842V9.38947H9.09474C9.01053 8.96842 8.96842 8.54737 8.96842 8.08421C8.96842 7.66316 9.01053 7.2 9.09474 6.77895H1.30526C0.589474 6.77895 0 7.36842 0 8.08421V30.9053C0 31.6211 0.589474 32.2105 1.30526 32.2105H35.3263C37.8947 32.2105 40 30.1053 40 27.5368V4.71579C40 2.10526 37.8947 0 35.3263 0V0ZM37.4316 23.3684C36.8 23.0316 36.0842 22.8632 35.3263 22.8632H31.9579V2.61053H35.3263C36.5053 2.61053 37.4316 3.53684 37.4316 4.71579V23.3684Z" fill="url(#paint0_linear_1028_327)"/>
<path d="M7.78946 16.1688C7.41051 16.5898 7.49472 17.2214 7.91577 17.6004C8.21051 17.8951 8.58946 18.1477 8.9263 18.3583L7.2842 21.8951C7.15788 22.1898 7.11577 22.4846 7.15788 22.7793L7.66314 25.6846C7.74735 26.0635 8.25262 26.1477 8.42104 25.7688L11.3263 19.5372C12.4631 19.9583 13.7263 20.2109 14.9895 20.2951V20.8846C14.9895 21.4319 15.4526 21.8951 16 21.8951C16.5474 21.8951 17.0105 21.4319 17.0105 20.8846V20.2951C18.3158 20.2109 19.5368 19.9583 20.6737 19.5372L23.5789 25.7688C23.7474 26.1477 24.2947 26.0635 24.3368 25.6846L24.8421 22.7793C24.8842 22.4846 24.8421 22.1477 24.7158 21.8951L23.0737 18.3583C23.4526 18.1056 23.7895 17.853 24.0842 17.6004C24.5052 17.2214 24.5474 16.5898 24.1684 16.1688C23.7895 15.7477 23.1579 15.7056 22.7368 16.0846C22.5684 16.253 22.3579 16.3793 22.1895 16.5477L19.4947 10.7793C20.0421 10.0635 20.3789 9.1372 20.3789 8.16878C20.3789 6.18983 19.0737 4.54773 17.3052 3.95825V2.23194C17.3052 1.9372 17.0526 1.68457 16.7579 1.68457H15.2C14.9052 1.68457 14.6526 1.9372 14.6526 2.23194V3.91615C12.8421 4.46352 11.5789 6.14773 11.5789 8.12668C11.5789 9.0951 11.9158 10.0214 12.4631 10.7372L9.76841 16.5056C9.55788 16.3793 9.38946 16.2109 9.22104 16.0846C8.75788 15.7056 8.1263 15.7477 7.78946 16.1688V16.1688ZM15.9579 6.40036C16.9263 6.40036 17.6842 7.15825 17.6842 8.12668C17.6842 9.0951 16.9263 9.85299 15.9579 9.85299C14.9895 9.85299 14.2316 9.0951 14.2316 8.12668C14.2316 7.15825 15.0316 6.40036 15.9579 6.40036ZM14.6526 12.3372C15.0737 12.4635 15.4947 12.5477 15.9579 12.5477C16.421 12.5477 16.8421 12.4635 17.2631 12.3372L19.7895 17.7267C18.9052 18.0214 17.9789 18.2319 16.9684 18.3162V17.8109C16.9684 17.2635 16.5052 16.8004 15.9579 16.8004C15.4105 16.8004 14.9474 17.2635 14.9474 17.8109V18.3162C13.9789 18.2319 13.0105 18.0214 12.1263 17.7267L14.6526 12.3372V12.3372Z" fill="url(#paint1_linear_1028_327)"/>
</g>
<defs>
<linearGradient id="paint0_linear_1028_327" x1="20" y1="0" x2="20" y2="32.2105" gradientUnits="userSpaceOnUse">
<stop stop-color="#C2185B"/>
<stop offset="1" stop-color="#E53935"/>
</linearGradient>
<linearGradient id="paint1_linear_1028_327" x1="16" y1="1.68457" x2="16" y2="26.0144" gradientUnits="userSpaceOnUse">
<stop stop-color="#C2185B"/>
<stop offset="1" stop-color="#E53935"/>
</linearGradient>
<clipPath id="clip0_1028_327">
<rect width="40" height="32.2105" fill="white"/>
</clipPath>
</defs>
</svg>
