<svg width="40" height="35" viewBox="0 0 40 35" fill="none" xmlns="http://www.w3.org/2000/svg">
<g clip-path="url(#clip0_1028_318)">
<path d="M27.8663 32.8335H2.1468V2.10471H27.8663V17.4691L30.0132 15.3644V1.81005C30.0132 0.79979 29.1713 0 28.161 0H1.85214C0.841884 0 0 0.79979 0 1.81005V33.1281C0 34.1384 0.841884 34.9382 1.85214 34.9382H28.161C29.1713 34.9382 30.0132 34.1384 30.0132 33.1281V28.5399L27.8663 30.6867V32.8335V32.8335Z" fill="url(#paint0_linear_1028_318)"/>
<path d="M7.5349 8.88205H22.4362C23.0256 8.88205 23.4886 8.41902 23.4886 7.8297C23.4886 7.24038 23.0256 6.77734 22.4362 6.77734H7.5349C6.94558 6.77734 6.48254 7.24038 6.48254 7.8297C6.48254 8.41902 6.94558 8.88205 7.5349 8.88205Z" fill="url(#paint1_linear_1028_318)"/>
<path d="M7.5349 15.3225H22.4362C23.0256 15.3225 23.4886 14.8594 23.4886 14.2701C23.4886 13.6808 23.0256 13.2178 22.4362 13.2178H7.5349C6.94558 13.2178 6.48254 13.6808 6.48254 14.2701C6.48254 14.8594 6.94558 15.3225 7.5349 15.3225Z" fill="url(#paint2_linear_1028_318)"/>
<path d="M23.5307 20.6686C23.5307 20.0792 23.0677 19.6162 22.4783 19.6162H7.5349C6.94558 19.6162 6.48254 20.0792 6.48254 20.6686C6.48254 21.2579 6.94558 21.7209 7.5349 21.7209H22.4362C23.0256 21.763 23.5307 21.2579 23.5307 20.6686Z" fill="url(#paint3_linear_1028_318)"/>
<path d="M6.48254 27.1091C6.48254 27.6984 6.94558 28.1615 7.5349 28.1615H19.7843L20.2473 26.0146H7.5349C6.94558 26.0567 6.48254 26.5198 6.48254 27.1091Z" fill="url(#paint4_linear_1028_318)"/>
<path d="M39.779 14.691L37.2533 12.1653C36.9587 11.8707 36.4956 11.8707 36.201 12.1653L34.5172 13.8491L38.0952 17.4271L39.779 15.7433C40.0736 15.4908 40.0736 14.9856 39.779 14.691Z" fill="url(#paint5_linear_1028_318)"/>
<path d="M24.877 23.5069L33.2995 15.082L36.8715 18.6533L28.4489 27.0781L24.877 23.5069Z" fill="url(#paint6_linear_1028_318)"/>
<path d="M22.6467 30.2233L25.888 29.4656C26.0142 29.4235 26.1405 29.3814 26.2668 29.2552L27.235 28.287L23.657 24.709L22.6888 25.6772C22.6046 25.7613 22.5204 25.8876 22.4783 26.056L21.7206 29.2973C21.5943 29.8866 22.0995 30.3496 22.6467 30.2233Z" fill="url(#paint7_linear_1028_318)"/>
</g>
<defs>
<linearGradient id="paint0_linear_1028_318" x1="15.0066" y1="0" x2="15.0066" y2="34.9382" gradientUnits="userSpaceOnUse">
<stop stop-color="#C2185B"/>
<stop offset="1" stop-color="#E53935"/>
</linearGradient>
<linearGradient id="paint1_linear_1028_318" x1="14.9856" y1="6.77734" x2="14.9856" y2="8.88205" gradientUnits="userSpaceOnUse">
<stop stop-color="#C2185B"/>
<stop offset="1" stop-color="#E53935"/>
</linearGradient>
<linearGradient id="paint2_linear_1028_318" x1="14.9856" y1="13.2178" x2="14.9856" y2="15.3225" gradientUnits="userSpaceOnUse">
<stop stop-color="#C2185B"/>
<stop offset="1" stop-color="#E53935"/>
</linearGradient>
<linearGradient id="paint3_linear_1028_318" x1="15.0066" y1="19.6162" x2="15.0066" y2="21.7234" gradientUnits="userSpaceOnUse">
<stop stop-color="#C2185B"/>
<stop offset="1" stop-color="#E53935"/>
</linearGradient>
<linearGradient id="paint4_linear_1028_318" x1="13.3649" y1="26.0146" x2="13.3649" y2="28.1615" gradientUnits="userSpaceOnUse">
<stop stop-color="#C2185B"/>
<stop offset="1" stop-color="#E53935"/>
</linearGradient>
<linearGradient id="paint5_linear_1028_318" x1="37.2586" y1="11.9443" x2="37.2586" y2="17.4271" gradientUnits="userSpaceOnUse">
<stop stop-color="#C2185B"/>
<stop offset="1" stop-color="#E53935"/>
</linearGradient>
<linearGradient id="paint6_linear_1028_318" x1="30.8742" y1="15.082" x2="30.8742" y2="27.0781" gradientUnits="userSpaceOnUse">
<stop stop-color="#C2185B"/>
<stop offset="1" stop-color="#E53935"/>
</linearGradient>
<linearGradient id="paint7_linear_1028_318" x1="24.468" y1="24.709" x2="24.468" y2="30.2442" gradientUnits="userSpaceOnUse">
<stop stop-color="#C2185B"/>
<stop offset="1" stop-color="#E53935"/>
</linearGradient>
<clipPath id="clip0_1028_318">
<rect width="40" height="34.9382" fill="white"/>
</clipPath>
</defs>
</svg>
